<svg width="18" height="18" viewBox="0 0 18 18" fill="none" xmlns="http://www.w3.org/2000/svg">
<path d="M17.4375 8.71875C17.4375 3.90234 13.5352 0 8.71875 0C3.90234 0 0 3.90234 0 8.71875C0 13.5352 3.90234 17.4375 8.71875 17.4375C13.5352 17.4375 17.4375 13.5352 17.4375 8.71875ZM8.71875 16.3125C4.5457 16.3125 1.125 12.934 1.125 8.71875C1.125 4.5457 4.50352 1.125 8.71875 1.125C12.8918 1.125 16.3125 4.50352 16.3125 8.71875C16.3125 12.8918 12.934 16.3125 8.71875 16.3125ZM9.84375 12.0937L6.46875 8.71875L9.84375 5.34375L9.84375 12.0937ZM10.9688 5.34375C10.9688 4.34531 9.75586 3.83906 9.04922 4.54922L5.67422 7.92422C5.23477 8.36367 5.23477 9.07734 5.67422 9.5168L9.04922 12.8918C9.75586 13.5984 10.9687 13.0992 10.9687 12.0973L10.9688 5.34375Z" fill="black"/>
</svg>
